<svg width="365" height="91" viewBox="0 0 365 91" fill="none" xmlns="http://www.w3.org/2000/svg">
<g clip-path="url(#clip0_565_7)">
<path d="M334.047 90.5918C314.87 90.5918 303.219 76.3913 303.219 57.5788C303.219 38.7662 314.87 24.5657 334.047 24.5657C353.102 24.5657 364.754 38.4021 364.754 58.4284V62.0695H317.298C318.511 72.5075 324.337 79.3043 334.047 79.3043C341.693 79.3043 347.034 75.7845 349.704 69.8373H363.54C359.535 82.3385 348.733 90.5918 334.047 90.5918ZM317.54 51.6316H350.432C348.854 42.0432 343.15 35.8533 334.047 35.8533C324.823 35.8533 319.118 42.0432 317.54 51.6316Z" fill="black"/>
<path d="M281.551 50.5392C281.551 42.6501 277.788 36.8242 268.807 36.8242C263.588 36.8242 253.393 39.9799 253.393 54.3017V89.1353H239.435V26.0222H252.907V34.8823C257.276 28.9351 263.83 24.5657 272.933 24.5657C287.862 24.5657 295.387 35.0037 295.387 48.9614V89.1353H281.551V50.5392Z" fill="black"/>
<path d="M187.733 90.5918C159.574 90.5918 144.889 69.9586 144.889 45.4416C144.889 20.9246 159.574 0.291443 187.733 0.291443C215.891 0.291443 230.577 20.9246 230.577 45.4416C230.577 69.9586 215.891 90.5918 187.733 90.5918ZM160.424 45.4416C160.424 62.6764 168.799 77.1196 187.733 77.1196C206.788 77.1196 215.041 62.6764 215.041 45.4416C215.041 28.2069 206.788 13.7637 187.733 13.7637C168.799 13.7637 160.424 28.2069 160.424 45.4416Z" fill="black"/>
<path d="M97.0199 1.7547H110.856V72.0251C110.856 74.2097 111.301 75.7875 112.191 76.7584C113.161 77.7293 114.78 78.2148 117.045 78.2148H125.419V89.1376H113.768C109.966 89.1376 106.85 88.6522 104.423 87.6813C102.077 86.7103 100.256 85.0921 98.9617 82.8267C97.6672 80.5612 97.0199 77.4866 97.0199 73.6029V1.7547Z" fill="black"/>
<path d="M69.874 26.0277H83.5882V89.1376H69.874V26.0277ZM69.874 1.7547H83.5882V15.469H69.874V1.7547Z" fill="black"/>
<path d="M0.207214 1.7547H60.8898V14.9835H14.771V37.6788H58.5839V50.4221H14.771V89.1376H0.207214V1.7547Z" fill="black"/>
</g>
<defs>
<clipPath id="clip0_565_7">
<rect width="365" height="91" fill="white"/>
</clipPath>
</defs>
</svg>
